<svg version="1.1" xmlns="http://www.w3.org/2000/svg" width="400" height="450" viewBox="100 50 450 500">
  <path d="M0 0 C6.10865262 4.11399054 9.50455048 9.39705927 11.296875 16.546875 C11.73409328 21.35203856 11.70254189 26.14952076 11.67782593 30.97021484 C11.68128555 32.43985021 11.68605216 33.90948297 11.69200766 35.37911034 C11.70450556 39.40462197 11.69835283 43.42991964 11.68904901 47.45543194 C11.68225388 51.80178447 11.69274204 56.14810054 11.70098877 60.4944458 C11.71432334 69.00383203 11.71144959 77.51313884 11.70275085 86.02252817 C11.69597363 92.93875181 11.69505775 99.8549532 11.6983223 106.7711792 C11.698782 107.7558141 11.69924169 108.740449 11.69971532 109.75492132 C11.70067451 111.7552352 11.70164715 113.75554908 11.7026331 115.75586295 C11.71118618 134.50949827 11.70135413 153.26308958 11.685232 172.01671767 C11.67182889 188.10556819 11.67415701 204.19435378 11.68798828 220.28320312 C11.70404552 238.97007885 11.71036222 257.65691602 11.70115149 276.34379768 C11.70019585 278.33672205 11.69925274 280.32964642 11.6983223 282.3225708 C11.69785947 283.30310846 11.69739664 284.28364611 11.69691979 285.29389703 C11.69433034 292.20121015 11.69869995 299.10849878 11.70576096 306.01580811 C11.71417774 314.43437499 11.71189204 322.85285796 11.69591872 331.27141523 C11.68803843 335.56607398 11.6849403 339.86059286 11.69486618 344.15525055 C11.70381858 348.08821333 11.69887133 352.02090684 11.68293352 355.95384526 C11.67958803 357.37500151 11.68127462 358.7961806 11.68856089 360.21732211 C11.73595197 370.23033103 11.18584982 378.3909755 4.078125 386.00390625 C-1.72708234 391.0325398 -8.16044089 392.28629947 -15.70703125 391.98828125 C-22.60288553 390.97233401 -27.86511538 388.06856102 -32.203125 382.609375 C-35.78219259 377.54249733 -36.95233132 372.4215736 -36.96039391 366.27673721 C-36.97006724 364.40793502 -36.97006724 364.40793502 -36.979936 362.50137925 C-36.976994 361.12675324 -36.97385859 359.75212762 -36.97055054 358.37750244 C-36.97428827 356.91101973 -36.97889029 355.44453901 -36.98428118 353.97806144 C-36.9965115 349.95194051 -36.99625068 345.92590267 -36.99389243 341.8997674 C-36.99348427 337.55606971 -37.00452337 333.21239866 -37.01400757 328.86871338 C-37.03061894 320.35973988 -37.03611719 311.85079409 -37.03723232 303.34180573 C-37.03818278 296.42460058 -37.04229293 289.50740458 -37.04863358 282.59020233 C-37.0662467 262.9761431 -37.07547239 243.36210576 -37.07397263 223.74803856 C-37.07385276 222.1620124 -37.07385276 222.1620124 -37.07373047 220.54394531 C-37.07364871 219.48530257 -37.07356695 218.42665982 -37.07348271 217.33593699 C-37.07266989 200.18087514 -37.09180641 183.02590111 -37.1200072 165.87086466 C-37.14873896 148.25372683 -37.16254732 130.63663183 -37.16081965 113.01946998 C-37.16015583 103.12978644 -37.16564466 93.24019496 -37.18717575 83.35053253 C-37.20539141 74.92976879 -37.20973174 66.50913883 -37.1961569 58.08836392 C-37.18962908 53.79342456 -37.18950326 49.49874182 -37.2068634 45.2038269 C-37.2226076 41.26815333 -37.21971701 37.33293954 -37.20229514 33.39727709 C-37.19922817 31.9773666 -37.20284623 30.55742168 -37.21401529 29.13755181 C-37.2819557 19.88400946 -36.67604805 11.67995835 -30.84375 4.14453125 C-21.05874815 -3.80072852 -11.46406804 -6.33727985 0 0 Z " fill="#FFFFFF" transform="translate(312.703125,105.453125)"/>
  <path d="M0 0 C6.45396162 6.81251504 8.39914639 15.00800147 8.39717102 24.09645081 C8.40084771 24.99850705 8.4045244 25.90056329 8.4083125 26.82995456 C8.41936215 29.86523908 8.42319539 32.90048938 8.42700195 35.93579102 C8.43326573 38.10717376 8.43991245 40.27855543 8.44691467 42.44993591 C8.46433446 48.35932842 8.47487953 54.26871284 8.4831202 60.17812467 C8.48826925 63.87030188 8.49434509 67.56247658 8.50063133 71.25465202 C8.51968782 82.80689906 8.53391689 94.35913969 8.5422433 105.91139942 C8.55201248 119.24542933 8.57832181 132.57924304 8.61874419 145.91321808 C8.64891404 156.21908349 8.66371309 166.5249013 8.66702431 176.83081001 C8.66937416 182.98591505 8.67832614 189.14084269 8.70348549 195.29590034 C8.72678562 201.08991426 8.73099143 206.88363423 8.72072411 212.67768288 C8.72022908 214.80045805 8.72653957 216.92324779 8.74028015 219.04597855 C8.8789448 241.74408325 8.8789448 241.74408325 2.06640625 250.03125 C1.32261719 250.6396875 0.57882812 251.248125 -0.1875 251.875 C-0.92871094 252.5040625 -1.66992188 253.133125 -2.43359375 253.78125 C-8.80945422 258.16801403 -15.2318035 258.08581131 -22.75 257.375 C-29.33689517 255.66608467 -34.0710037 250.96309708 -37.75 245.375 C-39.92409521 240.19635009 -40.04196339 235.58150165 -40.03088379 230.06500244 C-40.03682603 229.13588161 -40.04276828 228.20676078 -40.04889059 227.24948478 C-40.06621408 224.14057035 -40.06927674 221.0318104 -40.07226562 217.92285156 C-40.0815255 215.69191155 -40.0915753 213.46097469 -40.10235596 211.2300415 C-40.1285727 205.17206851 -40.14148754 199.11413981 -40.15037727 193.05611897 C-40.1562433 189.269948 -40.16445375 185.48378909 -40.17338562 181.69762421 C-40.19759556 171.20435858 -40.21836267 160.71110008 -40.2251358 150.21780777 C-40.22557494 149.54691875 -40.22601407 148.87602973 -40.22646651 148.18481074 C-40.22690306 147.51236579 -40.22733962 146.83992085 -40.2277894 146.14709878 C-40.22867632 144.78458929 -40.22956944 143.4220798 -40.23046875 142.05957031 C-40.23091161 141.38372626 -40.23135447 140.7078822 -40.23181075 140.01155803 C-40.23970424 129.0642762 -40.27460863 118.11726082 -40.32118779 107.17008188 C-40.36867942 95.91717585 -40.39302698 84.6643987 -40.39587164 73.41137671 C-40.39796645 67.09862116 -40.4097542 60.78624172 -40.44551086 54.47357941 C-40.47849994 48.53413506 -40.48277056 42.59534903 -40.46523285 36.65584564 C-40.46369359 34.47984553 -40.47235831 32.30380982 -40.49214935 30.12789917 C-40.6779406 8.42300311 -40.6779406 8.42300311 -33.75 1.375 C-22.49241446 -7.91027652 -12.10115938 -7.15068509 0 0 Z " fill="#FFFFFF" transform="translate(401.75,173.625)"/>
  <path d="M0 0 C5.27757824 4.05967557 8.33895844 9.50241678 9.3815546 16.09516919 C9.52685247 18.56050818 9.54931724 20.99600539 9.52355957 23.46546936 C9.52979953 24.3985646 9.5360395 25.33165983 9.54246855 26.29303068 C9.55833295 29.39752058 9.5458199 32.50121816 9.53320312 35.60571289 C9.5386271 37.84034175 9.54575131 40.07496703 9.55444336 42.30958557 C9.57264556 48.36320527 9.5656221 54.41655163 9.55292702 60.47017598 C9.54278462 66.81121499 9.55219603 73.15223093 9.55847168 79.49327087 C9.56620942 90.82134348 9.55379718 102.14927756 9.53343433 113.47732245 C9.51556044 123.73827965 9.51867297 133.99905582 9.53710938 144.26000977 C9.55853785 156.19172158 9.56647194 168.12332355 9.55466032 180.05506128 C9.54842908 186.36536055 9.54757987 192.67553526 9.56080627 198.98582649 C9.57237193 204.91784372 9.56432548 210.84951947 9.54122925 216.78149986 C9.5359463 218.95670632 9.53744881 221.13194159 9.54627991 223.30713654 C9.55723486 226.27981533 9.54347183 229.25140462 9.52355957 232.22401428 C9.53248246 233.08170868 9.54140534 233.93940309 9.55059862 234.82308823 C9.46215196 241.645404 7.5729037 246.86300354 3.05078125 252.0234375 C2.39980469 252.56226563 1.74882812 253.10109375 1.078125 253.65625 C0.42972656 254.21054687 -0.21867187 254.76484375 -0.88671875 255.3359375 C-7.13458227 259.64079691 -13.63971664 259.47565406 -20.984375 258.78125 C-27.6363372 257.05545357 -32.16460766 252.3250745 -35.984375 246.78125 C-38.42757523 242.10251184 -38.27551954 237.70262509 -38.26525879 232.55354309 C-38.27120103 231.62119313 -38.27714328 230.68884318 -38.28326559 229.72824019 C-38.30061614 226.60240046 -38.30365405 223.47671414 -38.30664062 220.35083008 C-38.31589868 218.11018548 -38.32594823 215.86954403 -38.33673096 213.62890625 C-38.36296746 207.5398833 -38.3758667 201.45090445 -38.38475227 195.36183381 C-38.39061582 191.55673966 -38.39882585 187.75165754 -38.40776062 183.94656944 C-38.43197543 173.40273067 -38.45274027 162.85890239 -38.4595108 152.31503773 C-38.4601695 151.3034501 -38.4601695 151.3034501 -38.46084151 150.27142636 C-38.46149634 149.25747437 -38.46149634 149.25747437 -38.4621644 148.22303849 C-38.46305132 146.85336355 -38.46394445 145.48368861 -38.46484375 144.11401367 C-38.46550804 143.09491342 -38.46550804 143.09491342 -38.46618575 142.05522528 C-38.47407742 131.05291495 -38.50897418 120.0508699 -38.55556279 109.04866198 C-38.60305442 97.74153125 -38.62740204 86.43457821 -38.63024664 75.12733001 C-38.63234166 68.7832612 -38.64413356 62.43956663 -38.67988586 56.09559059 C-38.71287494 50.12579181 -38.71714553 44.15664799 -38.69960785 38.18679047 C-38.69806852 35.9995034 -38.7067342 33.81218092 -38.72652435 31.62498283 C-38.90898102 10.19803851 -38.90898102 10.19803851 -31.984375 2.78125 C-29.5703125 0.52734375 -29.5703125 0.52734375 -27.359375 -0.78125 C-26.62460938 -1.23628906 -25.88984375 -1.69132813 -25.1328125 -2.16015625 C-16.96221677 -6.1860316 -7.56520458 -4.64634612 0 0 Z " fill="#FFFFFF" transform="translate(228.984375,172.21875)"/>
  <path d="M0 0 C5.38055536 4.72592112 9.49467849 9.61481186 10.18682289 16.99096298 C10.26644764 19.32926323 10.28167443 21.65985662 10.2746582 23.99951172 C10.27976913 24.88486603 10.28488007 25.77022034 10.29014587 26.68240356 C10.30400313 29.59823437 10.30308791 32.51382775 10.30078125 35.4296875 C10.30467049 37.46461067 10.30900563 39.49953303 10.31376648 41.53445435 C10.32122052 45.79627109 10.32094345 50.05800498 10.31567383 54.31982422 C10.30988234 59.76931181 10.32680655 65.21845918 10.3500185 70.66789055 C10.36478263 74.86990324 10.36562385 79.07183452 10.36250877 83.27386856 C10.3630207 85.28242796 10.36823426 87.29099207 10.37832069 89.29952621 C10.39071878 92.11380579 10.38387304 94.92742938 10.37231445 97.74169922 C10.38378006 98.97481842 10.38378006 98.97481842 10.39547729 100.23284912 C10.3223522 108.32721436 7.86377563 116.17861311 2 122 C-4.18028416 126.57456547 -10.27284794 127.81677268 -17.8828125 127.4765625 C-24.67922352 126.43751219 -29.18785369 123.38477338 -33.4375 118.0625 C-37.77050977 112.05060325 -38.29831418 106.08884163 -38.29052734 98.92456055 C-38.29724457 98.03105896 -38.30396179 97.13755737 -38.31088257 96.21697998 C-38.32982539 93.27350244 -38.33378495 90.33025339 -38.3359375 87.38671875 C-38.3423682 85.33177091 -38.34909677 83.27682399 -38.35610962 81.22187805 C-38.36807324 76.91718423 -38.3717914 72.6125706 -38.37060547 68.30786133 C-38.37040238 62.80682509 -38.39769841 57.30630604 -38.43214989 51.80539227 C-38.45444824 47.56130131 -38.4584421 43.31733422 -38.45738602 39.07319069 C-38.45973778 37.04590893 -38.46853725 35.01862353 -38.48405075 32.99139977 C-38.50376922 30.148445 -38.49784963 27.30659777 -38.48583984 24.46362305 C-38.49707886 23.63578812 -38.50831787 22.80795319 -38.51989746 21.95503235 C-38.44251145 14.70239301 -36.30764392 8.80659395 -31.6875 3.1875 C-21.84005218 -4.82786451 -11.21407387 -6.65392042 0 0 Z " fill="#FFFFFF" transform="translate(485,238)"/>
  <path d="M0 0 C6.17187647 4.8374167 10.26702368 10.23067501 11.27840805 18.19137573 C11.3870173 20.57180152 11.40565364 22.93552312 11.38818359 25.31835938 C11.39344055 26.21375931 11.39869751 27.10915924 11.40411377 28.0316925 C11.41723598 30.96922644 11.40860332 33.90621127 11.3984375 36.84375 C11.40046047 38.8982351 11.40337376 40.9527195 11.40713501 43.00720215 C11.41154783 47.30418767 11.40516083 51.60098557 11.39111328 55.89794922 C11.37402215 61.39223925 11.38386891 66.88608955 11.40183067 72.38036346 C11.41269662 76.62013024 11.40920926 80.85979362 11.4014473 85.0995636 C11.39945307 87.12486321 11.40187713 89.15017235 11.40888596 91.17546082 C11.41654674 94.0111053 11.40483156 96.84604809 11.38818359 99.68164062 C11.39729263 100.9240728 11.39729263 100.9240728 11.40658569 102.19160461 C11.3219296 110.01680105 9.20382802 116.64902489 3.78125 122.45703125 C-2.09868893 127.5503994 -8.5140354 128.69023996 -16.14453125 128.37109375 C-23.98046463 127.35274399 -28.22104456 123.18105334 -33.3359375 117.4140625 C-37.14182405 111.89284681 -37.30123574 106.40297135 -37.30639648 99.94042969 C-37.31472 99.04853439 -37.32304352 98.1566391 -37.33161926 97.23771667 C-37.35564723 94.29905791 -37.36448309 91.36062149 -37.37109375 88.421875 C-37.38006636 86.36932308 -37.38918831 84.31677181 -37.39845276 82.26422119 C-37.41492632 77.96372898 -37.42263976 73.66331447 -37.42553711 69.36279297 C-37.43091562 63.87072145 -37.46858123 58.37938726 -37.51428127 52.88752365 C-37.54412643 48.64767842 -37.55126231 44.40800905 -37.55226326 40.16806793 C-37.55645161 38.14438759 -37.56882986 36.12070605 -37.58978081 34.09712982 C-37.79115921 12.96278102 -37.79115921 12.96278102 -29.97265625 3.5625 C-21.30253086 -3.52962711 -10.15424401 -6.08440673 0 0 Z " fill="#FFFFFF" transform="translate(142,237)"/>
</svg>
