<?xml version="1.0" encoding="UTF-8"?>
<svg version="1.1" xmlns="http://www.w3.org/2000/svg" width="600" height="600">
<path d="M0 0 C1.47757969 -0.00330344 2.95515849 -0.00703001 4.43273616 -0.01114148 C8.48061704 -0.02111525 12.52848311 -0.02487079 16.57637453 -0.02753079 C20.94748845 -0.03144769 25.31859078 -0.04102508 29.68969727 -0.04974365 C40.24049876 -0.06947004 50.79130116 -0.07956986 61.34211648 -0.08847144 C66.31851966 -0.09286101 71.2949218 -0.09822612 76.27132416 -0.10346031 C92.82783919 -0.12046951 109.38435358 -0.13496149 125.94087601 -0.14220905 C130.23359427 -0.14411875 134.52631252 -0.14603911 138.81903076 -0.147995 C140.41930741 -0.14872061 140.41930741 -0.14872061 142.05191287 -0.14946087 C159.31648491 -0.15775307 176.58098749 -0.18307767 193.84552923 -0.21557567 C211.59611524 -0.2487144 229.34666603 -0.266664 247.09728312 -0.26985329 C257.05321358 -0.27201219 267.00904276 -0.28066953 276.96494293 -0.30631447 C285.44758133 -0.32811484 293.93009384 -0.33602631 302.41275707 -0.32634769 C306.73325733 -0.32182974 311.05349838 -0.32354136 315.3739624 -0.34310913 C349.15885111 -0.48751961 349.15885111 -0.48751961 365.5055542 4.14717102 C366.28844897 4.36638541 367.07134374 4.58559979 367.87796259 4.81145704 C390.16534798 11.15401388 411.43407913 23.32818548 427.5055542 40.14717102 C428.45881592 41.1429718 428.45881592 41.1429718 429.43133545 42.15888977 C452.5055542 66.95445344 452.5055542 66.95445344 452.5055542 77.14717102 C453.1655542 77.47717102 453.8255542 77.80717102 454.5055542 78.14717102 C455.62582358 81.13455603 456.57823521 84.09688346 457.5055542 87.14717102 C458.09916748 88.96668274 458.09916748 88.96668274 458.70477295 90.82295227 C465.71020057 112.72343528 465.93801346 134.46516572 465.85375106 157.24213171 C465.84064881 161.69444522 465.84519006 166.14674792 465.84745789 170.59907532 C465.84902176 178.29044505 465.83970596 185.98173772 465.82274437 193.67308807 C465.79823769 204.79312108 465.79053724 215.91311728 465.78678039 227.03317437 C465.78023409 245.07998337 465.76032267 263.12675141 465.73187256 281.17353821 C465.70428463 298.69176531 465.68307429 316.20998124 465.67034912 333.72822571 C465.66956095 334.81023763 465.66877278 335.89224955 465.66796073 337.00704971 C465.66404527 342.43583889 465.66025423 347.86462814 465.65652502 353.29341745 C465.6254859 398.24469699 465.57270009 443.19593188 465.5055542 488.14717102 C464.8455542 488.14717102 464.1855542 488.14717102 463.5055542 488.14717102 C463.5364917 489.13846008 463.5674292 490.12974915 463.5993042 491.15107727 C463.50159243 495.31604157 462.88806324 499.03387501 462.0055542 503.08467102 C461.79092529 504.1104425 461.79092529 504.1104425 461.57196045 505.15693665 C461.22271649 506.82166616 460.86502474 508.48461978 460.5055542 510.14717102 C459.8455542 510.14717102 459.1855542 510.14717102 458.5055542 510.14717102 C458.3405542 511.30217102 458.1755542 512.45717102 458.0055542 513.64717102 C455.07943159 526.8250991 446.19893297 542.49199434 437.17352295 552.29170227 C434.19022119 555.61036347 431.50310534 559.18238204 428.75164795 562.69404602 C426.47622307 565.17920572 424.42097301 566.5075358 421.5055542 568.14717102 C420.1445035 569.28137994 418.80981572 570.44809188 417.5055542 571.64717102 C414.64976124 574.20660811 411.8642247 576.27026692 408.5055542 578.14717102 C407.8455542 578.80717102 407.1855542 579.46717102 406.5055542 580.14717102 C404.52825719 581.23131398 402.52443382 582.26758428 400.5055542 583.27217102 C399.4330542 583.81099915 398.3605542 584.34982727 397.2555542 584.90498352 C394.5055542 586.14717102 394.5055542 586.14717102 392.5055542 586.14717102 C392.1755542 586.80717102 391.8455542 587.46717102 391.5055542 588.14717102 C387.94082973 589.74515095 384.20820662 590.90813239 380.5055542 592.14717102 C379.7630542 592.40627258 379.0205542 592.66537415 378.2555542 592.93232727 C375.69295639 593.76974763 373.11223554 594.45701975 370.5055542 595.14717102 C369.29891994 595.47862436 368.09228569 595.81007771 366.84908676 596.15157509 C350.51869422 600.21406854 333.92311642 599.7069452 317.22242332 599.6407516 C312.74116148 599.62744332 308.25993904 599.63752757 303.77867126 599.64451599 C295.02757888 599.65453733 286.27663911 599.64339682 277.52556571 599.62481539 C267.31577396 599.60392503 257.10601414 599.60419098 246.89620504 599.60516055 C228.67139231 599.60615914 210.44665009 599.58790921 192.22186279 599.55879211 C174.57048255 599.53060608 156.91916429 599.51645153 139.26776123 599.51777649 C138.17986078 599.5178564 137.09196034 599.51793631 135.97109321 599.51801865 C134.88500053 599.51809936 133.79890785 599.51818007 132.67990327 599.51826322 C112.5312249 599.51964559 92.38257265 599.50784967 72.23390277 599.48995679 C65.13034279 599.48394482 58.02678764 599.48180016 50.9232254 599.48089218 C42.26034912 599.47952283 33.59751693 599.47052284 24.93465933 599.45222656 C20.52149219 599.443043 16.10838111 599.43688008 11.69520378 599.43941498 C7.6451559 599.44162839 3.59523135 599.43442837 -0.45479086 599.42011793 C-1.9093762 599.41653492 -3.36397447 599.4161872 -4.81856009 599.41965251 C-12.40918455 599.43571535 -19.88299209 599.13667193 -27.4193306 598.25545692 C-28.46023999 598.13929789 -28.46023999 598.13929789 -29.52217786 598.02079221 C-31.19102276 597.80444044 -32.8458917 597.48498865 -34.4944458 597.14717102 C-34.8244458 596.48717102 -35.1544458 595.82717102 -35.4944458 595.14717102 C-37.41466831 594.90373298 -39.33601784 594.6666618 -41.26153564 594.46943665 C-44.8083159 593.95754621 -47.98829975 592.71070791 -51.3069458 591.39717102 C-52.34734009 590.99401672 -52.34734009 590.99401672 -53.40875244 590.5827179 C-67.68315028 584.99126491 -78.76495828 578.02922069 -90.4944458 568.14717102 C-91.20729736 567.57096008 -91.92014893 566.99474915 -92.65460205 566.40107727 C-98.40991315 561.62977563 -102.92985241 556.04343841 -107.4944458 550.14717102 C-108.17635986 549.29252258 -108.85827393 548.43787415 -109.56085205 547.55732727 C-113.61550203 542.28072798 -116.88207126 536.82346143 -119.8694458 530.89717102 C-120.20339355 530.23564026 -120.53734131 529.5741095 -120.88140869 528.89253235 C-122.43216198 525.70844129 -123.6957425 522.65504649 -124.5960083 519.22529602 C-124.89249268 518.20951477 -125.18897705 517.19373352 -125.4944458 516.14717102 C-126.1544458 515.81717102 -126.8144458 515.48717102 -127.4944458 515.14717102 C-128.3460083 512.60029602 -128.3460083 512.60029602 -129.1194458 509.39717102 C-129.37983643 508.35045227 -129.64022705 507.30373352 -129.9085083 506.22529602 C-130.43980224 503.43423186 -130.6097139 500.97647891 -130.4944458 498.14717102 C-131.1544458 497.81717102 -131.8144458 497.48717102 -132.4944458 497.14717102 C-132.98233461 494.7554522 -133.33336604 492.46642406 -133.6027317 490.04748726 C-133.72909813 488.96585983 -133.72909813 488.96585983 -133.85801742 487.86238135 C-134.66025225 480.49311051 -134.78005237 473.15009118 -134.76187134 465.74211121 C-134.76561995 464.2631759 -134.77022621 462.78424256 -134.77560198 461.30531228 C-134.78769789 457.29074707 -134.7875876 453.27626601 -134.78521323 449.2616868 C-134.78480163 444.91248228 -134.79587661 440.56330353 -134.80532837 436.21411133 C-134.82186514 427.71183965 -134.82743457 419.20959572 -134.82855313 410.70730929 C-134.82950703 403.78901627 -134.8336343 396.87073232 -134.83995438 389.95244217 C-134.85754627 370.29223983 -134.86679638 350.63205922 -134.86529343 330.97184895 C-134.86521352 329.91434391 -134.8651336 328.85683886 -134.86505127 327.76728821 C-134.86496951 326.70847636 -134.86488775 325.64966451 -134.86480351 324.55876745 C-134.86399104 307.40921483 -134.88312422 290.25975013 -134.911328 273.11022292 C-134.9401294 255.45655019 -134.95386434 237.80292024 -134.95214045 220.14922345 C-134.95147908 210.25595259 -134.95685971 200.36277393 -134.97849655 190.46952438 C-134.9968041 182.04532043 -135.0009777 173.62125047 -134.9874777 165.19703512 C-134.98099617 160.90864034 -134.98065392 156.62050192 -134.9981842 152.33213234 C-135.1726275 106.79423433 -125.27181058 70.27314834 -93.3381958 36.89326477 C-91.56951824 35.21826717 -89.7754591 33.76669223 -87.8069458 32.33467102 C-85.67228393 30.77367513 -83.57227721 29.2117975 -81.53741455 27.52217102 C-68.85904235 17.0497871 -53.72003292 10.41105856 -38.1819458 5.39717102 C-34.50686036 4.45469735 -34.50686036 4.45469735 -32.4944458 2.14717102 C-32.4944458 2.80717102 -32.4944458 3.46717102 -32.4944458 4.14717102 C-31.55085205 3.83972961 -31.55085205 3.83972961 -30.5881958 3.52607727 C-29.7322583 3.25666321 -28.8763208 2.98724915 -27.9944458 2.70967102 C-27.1591333 2.44283508 -26.3238208 2.17599915 -25.4631958 1.90107727 C-17.07210122 -0.22981912 -8.59971676 -0.00174543 0 0 Z " fill="#8E6BFB" transform="translate(134.49444580078125,-0.1471710205078125)"/>
<path d="M0 0 C6.10865262 4.11399054 9.50455048 9.39705927 11.296875 16.546875 C11.73409328 21.35203856 11.70254189 26.14952076 11.67782593 30.97021484 C11.68128555 32.43985021 11.68605216 33.90948297 11.69200766 35.37911034 C11.70450556 39.40462197 11.69835283 43.42991964 11.68904901 47.45543194 C11.68225388 51.80178447 11.69274204 56.14810054 11.70098877 60.4944458 C11.71432334 69.00383203 11.71144959 77.51313884 11.70275085 86.02252817 C11.69597363 92.93875181 11.69505775 99.8549532 11.6983223 106.7711792 C11.698782 107.7558141 11.69924169 108.740449 11.69971532 109.75492132 C11.70067451 111.7552352 11.70164715 113.75554908 11.7026331 115.75586295 C11.71118618 134.50949827 11.70135413 153.26308958 11.685232 172.01671767 C11.67182889 188.10556819 11.67415701 204.19435378 11.68798828 220.28320312 C11.70404552 238.97007885 11.71036222 257.65691602 11.70115149 276.34379768 C11.70019585 278.33672205 11.69925274 280.32964642 11.6983223 282.3225708 C11.69785947 283.30310846 11.69739664 284.28364611 11.69691979 285.29389703 C11.69433034 292.20121015 11.69869995 299.10849878 11.70576096 306.01580811 C11.71417774 314.43437499 11.71189204 322.85285796 11.69591872 331.27141523 C11.68803843 335.56607398 11.6849403 339.86059286 11.69486618 344.15525055 C11.70381858 348.08821333 11.69887133 352.02090684 11.68293352 355.95384526 C11.67958803 357.37500151 11.68127462 358.7961806 11.68856089 360.21732211 C11.73595197 370.23033103 11.18584982 378.3909755 4.078125 386.00390625 C-1.72708234 391.0325398 -8.16044089 392.28629947 -15.70703125 391.98828125 C-22.60288553 390.97233401 -27.86511538 388.06856102 -32.203125 382.609375 C-35.78219259 377.54249733 -36.95233132 372.4215736 -36.96039391 366.27673721 C-36.97006724 364.40793502 -36.97006724 364.40793502 -36.979936 362.50137925 C-36.976994 361.12675324 -36.97385859 359.75212762 -36.97055054 358.37750244 C-36.97428827 356.91101973 -36.97889029 355.44453901 -36.98428118 353.97806144 C-36.9965115 349.95194051 -36.99625068 345.92590267 -36.99389243 341.8997674 C-36.99348427 337.55606971 -37.00452337 333.21239866 -37.01400757 328.86871338 C-37.03061894 320.35973988 -37.03611719 311.85079409 -37.03723232 303.34180573 C-37.03818278 296.42460058 -37.04229293 289.50740458 -37.04863358 282.59020233 C-37.0662467 262.9761431 -37.07547239 243.36210576 -37.07397263 223.74803856 C-37.07385276 222.1620124 -37.07385276 222.1620124 -37.07373047 220.54394531 C-37.07364871 219.48530257 -37.07356695 218.42665982 -37.07348271 217.33593699 C-37.07266989 200.18087514 -37.09180641 183.02590111 -37.1200072 165.87086466 C-37.14873896 148.25372683 -37.16254732 130.63663183 -37.16081965 113.01946998 C-37.16015583 103.12978644 -37.16564466 93.24019496 -37.18717575 83.35053253 C-37.20539141 74.92976879 -37.20973174 66.50913883 -37.1961569 58.08836392 C-37.18962908 53.79342456 -37.18950326 49.49874182 -37.2068634 45.2038269 C-37.2226076 41.26815333 -37.21971701 37.33293954 -37.20229514 33.39727709 C-37.19922817 31.9773666 -37.20284623 30.55742168 -37.21401529 29.13755181 C-37.2819557 19.88400946 -36.67604805 11.67995835 -30.84375 4.14453125 C-21.05874815 -3.80072852 -11.46406804 -6.33727985 0 0 Z " fill="#FEFEFE" transform="translate(312.703125,105.453125)"/>
<path d="M0 0 C6.45396162 6.81251504 8.39914639 15.00800147 8.39717102 24.09645081 C8.40084771 24.99850705 8.4045244 25.90056329 8.4083125 26.82995456 C8.41936215 29.86523908 8.42319539 32.90048938 8.42700195 35.93579102 C8.43326573 38.10717376 8.43991245 40.27855543 8.44691467 42.44993591 C8.46433446 48.35932842 8.47487953 54.26871284 8.4831202 60.17812467 C8.48826925 63.87030188 8.49434509 67.56247658 8.50063133 71.25465202 C8.51968782 82.80689906 8.53391689 94.35913969 8.5422433 105.91139942 C8.55201248 119.24542933 8.57832181 132.57924304 8.61874419 145.91321808 C8.64891404 156.21908349 8.66371309 166.5249013 8.66702431 176.83081001 C8.66937416 182.98591505 8.67832614 189.14084269 8.70348549 195.29590034 C8.72678562 201.08991426 8.73099143 206.88363423 8.72072411 212.67768288 C8.72022908 214.80045805 8.72653957 216.92324779 8.74028015 219.04597855 C8.8789448 241.74408325 8.8789448 241.74408325 2.06640625 250.03125 C1.32261719 250.6396875 0.57882812 251.248125 -0.1875 251.875 C-0.92871094 252.5040625 -1.66992188 253.133125 -2.43359375 253.78125 C-8.80945422 258.16801403 -15.2318035 258.08581131 -22.75 257.375 C-29.33689517 255.66608467 -34.0710037 250.96309708 -37.75 245.375 C-39.92409521 240.19635009 -40.04196339 235.58150165 -40.03088379 230.06500244 C-40.03682603 229.13588161 -40.04276828 228.20676078 -40.04889059 227.24948478 C-40.06621408 224.14057035 -40.06927674 221.0318104 -40.07226562 217.92285156 C-40.0815255 215.69191155 -40.0915753 213.46097469 -40.10235596 211.2300415 C-40.1285727 205.17206851 -40.14148754 199.11413981 -40.15037727 193.05611897 C-40.1562433 189.269948 -40.16445375 185.48378909 -40.17338562 181.69762421 C-40.19759556 171.20435858 -40.21836267 160.71110008 -40.2251358 150.21780777 C-40.22557494 149.54691875 -40.22601407 148.87602973 -40.22646651 148.18481074 C-40.22690306 147.51236579 -40.22733962 146.83992085 -40.2277894 146.14709878 C-40.22867632 144.78458929 -40.22956944 143.4220798 -40.23046875 142.05957031 C-40.23091161 141.38372626 -40.23135447 140.7078822 -40.23181075 140.01155803 C-40.23970424 129.0642762 -40.27460863 118.11726082 -40.32118779 107.17008188 C-40.36867942 95.91717585 -40.39302698 84.6643987 -40.39587164 73.41137671 C-40.39796645 67.09862116 -40.4097542 60.78624172 -40.44551086 54.47357941 C-40.47849994 48.53413506 -40.48277056 42.59534903 -40.46523285 36.65584564 C-40.46369359 34.47984553 -40.47235831 32.30380982 -40.49214935 30.12789917 C-40.6779406 8.42300311 -40.6779406 8.42300311 -33.75 1.375 C-22.49241446 -7.91027652 -12.10115938 -7.15068509 0 0 Z " fill="#FDFCFD" transform="translate(401.75,173.625)"/>
<path d="M0 0 C5.27757824 4.05967557 8.33895844 9.50241678 9.3815546 16.09516919 C9.52685247 18.56050818 9.54931724 20.99600539 9.52355957 23.46546936 C9.52979953 24.3985646 9.5360395 25.33165983 9.54246855 26.29303068 C9.55833295 29.39752058 9.5458199 32.50121816 9.53320312 35.60571289 C9.5386271 37.84034175 9.54575131 40.07496703 9.55444336 42.30958557 C9.57264556 48.36320527 9.5656221 54.41655163 9.55292702 60.47017598 C9.54278462 66.81121499 9.55219603 73.15223093 9.55847168 79.49327087 C9.56620942 90.82134348 9.55379718 102.14927756 9.53343433 113.47732245 C9.51556044 123.73827965 9.51867297 133.99905582 9.53710938 144.26000977 C9.55853785 156.19172158 9.56647194 168.12332355 9.55466032 180.05506128 C9.54842908 186.36536055 9.54757987 192.67553526 9.56080627 198.98582649 C9.57237193 204.91784372 9.56432548 210.84951947 9.54122925 216.78149986 C9.5359463 218.95670632 9.53744881 221.13194159 9.54627991 223.30713654 C9.55723486 226.27981533 9.54347183 229.25140462 9.52355957 232.22401428 C9.53248246 233.08170868 9.54140534 233.93940309 9.55059862 234.82308823 C9.46215196 241.645404 7.5729037 246.86300354 3.05078125 252.0234375 C2.39980469 252.56226563 1.74882812 253.10109375 1.078125 253.65625 C0.42972656 254.21054687 -0.21867187 254.76484375 -0.88671875 255.3359375 C-7.13458227 259.64079691 -13.63971664 259.47565406 -20.984375 258.78125 C-27.6363372 257.05545357 -32.16460766 252.3250745 -35.984375 246.78125 C-38.42757523 242.10251184 -38.27551954 237.70262509 -38.26525879 232.55354309 C-38.27120103 231.62119313 -38.27714328 230.68884318 -38.28326559 229.72824019 C-38.30061614 226.60240046 -38.30365405 223.47671414 -38.30664062 220.35083008 C-38.31589868 218.11018548 -38.32594823 215.86954403 -38.33673096 213.62890625 C-38.36296746 207.5398833 -38.3758667 201.45090445 -38.38475227 195.36183381 C-38.39061582 191.55673966 -38.39882585 187.75165754 -38.40776062 183.94656944 C-38.43197543 173.40273067 -38.45274027 162.85890239 -38.4595108 152.31503773 C-38.4601695 151.3034501 -38.4601695 151.3034501 -38.46084151 150.27142636 C-38.46149634 149.25747437 -38.46149634 149.25747437 -38.4621644 148.22303849 C-38.46305132 146.85336355 -38.46394445 145.48368861 -38.46484375 144.11401367 C-38.46550804 143.09491342 -38.46550804 143.09491342 -38.46618575 142.05522528 C-38.47407742 131.05291495 -38.50897418 120.0508699 -38.55556279 109.04866198 C-38.60305442 97.74153125 -38.62740204 86.43457821 -38.63024664 75.12733001 C-38.63234166 68.7832612 -38.64413356 62.43956663 -38.67988586 56.09559059 C-38.71287494 50.12579181 -38.71714553 44.15664799 -38.69960785 38.18679047 C-38.69806852 35.9995034 -38.7067342 33.81218092 -38.72652435 31.62498283 C-38.90898102 10.19803851 -38.90898102 10.19803851 -31.984375 2.78125 C-29.5703125 0.52734375 -29.5703125 0.52734375 -27.359375 -0.78125 C-26.62460938 -1.23628906 -25.88984375 -1.69132813 -25.1328125 -2.16015625 C-16.96221677 -6.1860316 -7.56520458 -4.64634612 0 0 Z " fill="#FEFEFD" transform="translate(228.984375,172.21875)"/>
<path d="M0 0 C5.38055536 4.72592112 9.49467849 9.61481186 10.18682289 16.99096298 C10.26644764 19.32926323 10.28167443 21.65985662 10.2746582 23.99951172 C10.27976913 24.88486603 10.28488007 25.77022034 10.29014587 26.68240356 C10.30400313 29.59823437 10.30308791 32.51382775 10.30078125 35.4296875 C10.30467049 37.46461067 10.30900563 39.49953303 10.31376648 41.53445435 C10.32122052 45.79627109 10.32094345 50.05800498 10.31567383 54.31982422 C10.30988234 59.76931181 10.32680655 65.21845918 10.3500185 70.66789055 C10.36478263 74.86990324 10.36562385 79.07183452 10.36250877 83.27386856 C10.3630207 85.28242796 10.36823426 87.29099207 10.37832069 89.29952621 C10.39071878 92.11380579 10.38387304 94.92742938 10.37231445 97.74169922 C10.38378006 98.97481842 10.38378006 98.97481842 10.39547729 100.23284912 C10.3223522 108.32721436 7.86377563 116.17861311 2 122 C-4.18028416 126.57456547 -10.27284794 127.81677268 -17.8828125 127.4765625 C-24.67922352 126.43751219 -29.18785369 123.38477338 -33.4375 118.0625 C-37.77050977 112.05060325 -38.29831418 106.08884163 -38.29052734 98.92456055 C-38.29724457 98.03105896 -38.30396179 97.13755737 -38.31088257 96.21697998 C-38.32982539 93.27350244 -38.33378495 90.33025339 -38.3359375 87.38671875 C-38.3423682 85.33177091 -38.34909677 83.27682399 -38.35610962 81.22187805 C-38.36807324 76.91718423 -38.3717914 72.6125706 -38.37060547 68.30786133 C-38.37040238 62.80682509 -38.39769841 57.30630604 -38.43214989 51.80539227 C-38.45444824 47.56130131 -38.4584421 43.31733422 -38.45738602 39.07319069 C-38.45973778 37.04590893 -38.46853725 35.01862353 -38.48405075 32.99139977 C-38.50376922 30.148445 -38.49784963 27.30659777 -38.48583984 24.46362305 C-38.49707886 23.63578812 -38.50831787 22.80795319 -38.51989746 21.95503235 C-38.44251145 14.70239301 -36.30764392 8.80659395 -31.6875 3.1875 C-21.84005218 -4.82786451 -11.21407387 -6.65392042 0 0 Z " fill="#FEFDFE" transform="translate(485,238)"/>
<path d="M0 0 C6.17187647 4.8374167 10.26702368 10.23067501 11.27840805 18.19137573 C11.3870173 20.57180152 11.40565364 22.93552312 11.38818359 25.31835938 C11.39344055 26.21375931 11.39869751 27.10915924 11.40411377 28.0316925 C11.41723598 30.96922644 11.40860332 33.90621127 11.3984375 36.84375 C11.40046047 38.8982351 11.40337376 40.9527195 11.40713501 43.00720215 C11.41154783 47.30418767 11.40516083 51.60098557 11.39111328 55.89794922 C11.37402215 61.39223925 11.38386891 66.88608955 11.40183067 72.38036346 C11.41269662 76.62013024 11.40920926 80.85979362 11.4014473 85.0995636 C11.39945307 87.12486321 11.40187713 89.15017235 11.40888596 91.17546082 C11.41654674 94.0111053 11.40483156 96.84604809 11.38818359 99.68164062 C11.39729263 100.9240728 11.39729263 100.9240728 11.40658569 102.19160461 C11.3219296 110.01680105 9.20382802 116.64902489 3.78125 122.45703125 C-2.09868893 127.5503994 -8.5140354 128.69023996 -16.14453125 128.37109375 C-23.98046463 127.35274399 -28.22104456 123.18105334 -33.3359375 117.4140625 C-37.14182405 111.89284681 -37.30123574 106.40297135 -37.30639648 99.94042969 C-37.31472 99.04853439 -37.32304352 98.1566391 -37.33161926 97.23771667 C-37.35564723 94.29905791 -37.36448309 91.36062149 -37.37109375 88.421875 C-37.38006636 86.36932308 -37.38918831 84.31677181 -37.39845276 82.26422119 C-37.41492632 77.96372898 -37.42263976 73.66331447 -37.42553711 69.36279297 C-37.43091562 63.87072145 -37.46858123 58.37938726 -37.51428127 52.88752365 C-37.54412643 48.64767842 -37.55126231 44.40800905 -37.55226326 40.16806793 C-37.55645161 38.14438759 -37.56882986 36.12070605 -37.58978081 34.09712982 C-37.79115921 12.96278102 -37.79115921 12.96278102 -29.97265625 3.5625 C-21.30253086 -3.52962711 -10.15424401 -6.08440673 0 0 Z " fill="#FDFCFE" transform="translate(142,237)"/>
<path d="M0 0 C0.99 0.33 1.98 0.66 3 1 C5.83085135 6.90974795 6.42370079 11.85451541 6.33625793 18.33618164 C6.33614879 19.24392114 6.33603964 20.15166063 6.33592719 21.08690739 C6.3318591 24.11155518 6.30620378 27.1356207 6.28051758 30.16015625 C6.27307879 32.33551644 6.26694781 34.51088144 6.26202393 36.68624878 C6.244712 42.58294312 6.20839479 48.47938086 6.16811585 54.37595749 C6.12860818 60.55145707 6.10478831 66.72701946 6.07878113 72.90258789 C6.03268733 83.27269953 5.97453901 93.6426898 5.90893555 104.01269531 C5.83324498 115.99598972 5.77518537 127.97922127 5.72690278 139.96265888 C5.68013446 151.49785548 5.62221004 163.03296863 5.55875206 174.56808472 C5.53188024 179.47377589 5.50866514 184.37946419 5.48835182 189.28518677 C5.46382347 195.06365959 5.42944104 200.84199332 5.38749695 206.62036514 C5.37364921 208.73911751 5.3631142 210.85789455 5.35616112 212.97668076 C5.34608794 215.87253729 5.32389091 218.76805979 5.29866028 221.66381836 C5.29854865 222.49884919 5.29843703 223.33388002 5.29832202 224.19421482 C5.2288939 230.03958611 4.65669093 235.68661813 2 241 C1.34 241 0.68 241 0 241 C0.32476192 240.0400541 0.64952385 239.0801082 0.98412704 238.09107304 C2.26877981 233.56228187 2.27817518 229.22361059 2.25396729 224.54283142 C2.25708727 223.6100339 2.26020725 222.67723639 2.26342177 221.71617228 C2.27137773 218.60099981 2.26508747 215.48602342 2.25878906 212.37084961 C2.26149997 210.13327419 2.26506146 207.89569967 2.26940918 205.65812683 C2.27852303 199.58806186 2.27499316 193.51806491 2.26865101 187.44799876 C2.26358648 181.09534062 2.26828367 174.74268828 2.27142334 168.39002991 C2.27529439 157.0399815 2.26908089 145.68996763 2.25890467 134.33992613 C2.24996742 124.05334364 2.25152357 113.76680629 2.26074219 103.48022461 C2.2714498 91.52659356 2.27542696 79.57298991 2.26951766 67.6193524 C2.26639901 61.29458855 2.26598582 54.96985578 2.27259064 48.64509392 C2.27836534 42.70007161 2.27436482 36.75513462 2.26280212 30.81012154 C2.26015634 28.62762214 2.26091923 26.44511557 2.26532745 24.26261902 C2.27078739 21.28504387 2.26394318 18.30774261 2.25396729 15.33018494 C2.25842873 14.46530061 2.26289017 13.60041629 2.26748681 12.70932335 C2.23734381 8.07506034 1.77590167 4.36133915 0 0 Z " fill="#A68AED" transform="translate(235,180)"/>
<path d="M0 0 C0.99 0.33 1.98 0.66 3 1 C2.57532975 1.46629507 2.1506595 1.93259014 1.71312046 2.41301537 C-5.1630356 11.52635033 -3.81910946 22.1720516 -3.72875977 33.02978516 C-3.73198149 35.27441404 -3.73780238 37.51904046 -3.74601746 39.76365662 C-3.76051872 45.84010229 -3.73765263 51.91588364 -3.70715833 57.99224901 C-3.68074575 64.35862464 -3.68609052 70.7249809 -3.6872406 77.09140015 C-3.684434 87.77915874 -3.65858899 98.46663701 -3.61743164 109.15429688 C-3.57515498 120.13839354 -3.55392043 131.12226616 -3.5559082 142.10644531 C-3.55602807 142.78331684 -3.55614794 143.46018837 -3.55627144 144.15757115 C-3.5563925 144.83330247 -3.55651357 145.50903378 -3.5566383 146.2052418 C-3.55881527 159.36572786 -3.53783862 172.5261224 -3.51029849 185.68658018 C-3.50390994 189.47437291 -3.5017757 193.26214821 -3.50058174 197.04994583 C-3.49756452 203.00411512 -3.47921837 208.95804995 -3.44908333 214.9121418 C-3.44033392 217.09540305 -3.43662705 219.27869129 -3.43836594 221.46196938 C-3.43984274 224.44540391 -3.42282673 227.4281861 -3.40113831 230.41152954 C-3.40578411 231.27243277 -3.41042992 232.133336 -3.41521651 233.02032721 C-3.34782203 238.64592125 -2.24142667 242.83197728 0 248 C-0.66 248 -1.32 248 -2 248 C-5.35281541 241.63090111 -6.58086016 236.50263385 -6.49447632 229.34028625 C-6.50171956 227.94465203 -6.50171956 227.94465203 -6.50910914 226.52082318 C-6.52031636 223.42545539 -6.50310931 220.33092548 -6.48583984 217.2355957 C-6.48798725 215.00757627 -6.49186723 212.77955793 -6.49734497 210.55154419 C-6.50701821 204.51663183 -6.49176114 198.48201644 -6.47143888 192.44713998 C-6.4538428 186.12786474 -6.45739343 179.80859833 -6.4581604 173.48930359 C-6.45628895 162.881403 -6.43905252 152.27362788 -6.41162109 141.66577148 C-6.38342936 130.75819828 -6.36928055 119.85072537 -6.37060547 108.94311523 C-6.37068538 108.27082417 -6.37076529 107.5985331 -6.37084763 106.90586958 C-6.37092834 106.23472253 -6.37100905 105.56357548 -6.3710922 104.87209064 C-6.37254248 91.81068613 -6.35856415 78.74932267 -6.34019899 65.68793082 C-6.33593647 61.9248745 -6.33451667 58.16182598 -6.33372116 54.39876747 C-6.33171248 48.48817608 -6.31950433 42.57768997 -6.29938889 36.66713333 C-6.29354675 34.49753781 -6.29108656 32.32793018 -6.29224396 30.1583271 C-6.29322548 27.19836036 -6.2819131 24.23868848 -6.26742554 21.27876282 C-6.27052274 20.41913368 -6.27361995 19.55950454 -6.276811 18.67382604 C-6.23943835 14.05431271 -5.76662635 10.34804603 -4 6 C-3.34 6 -2.68 6 -2 6 C-1.855625 5.38125 -1.71125 4.7625 -1.5625 4.125 C-1 2 -1 2 0 0 Z " fill="#A28AE0" transform="translate(195,174)"/>
<path d="M0 0 C0.33 0 0.66 0 1 0 C1.00634791 1.75428031 1.00634791 1.75428031 1.01282406 3.54400063 C1.11350085 31.30641089 1.2192104 59.06879828 1.33111694 86.83116565 C1.34488651 90.24828346 1.35861361 93.66540144 1.37231445 97.08251953 C1.37504276 97.76280584 1.37777106 98.44309214 1.38058204 99.14399318 C1.42465628 110.15889158 1.46529021 121.17380012 1.50465261 132.18871625 C1.54511904 143.49114462 1.58935574 154.79355398 1.63687855 166.09595525 C1.66345153 172.44428052 1.68830396 178.79260212 1.70907402 185.14094925 C1.72867201 191.11459707 1.75282533 197.08820906 1.78049088 203.0618248 C1.78984454 205.25560098 1.79752586 207.44938501 1.80341911 209.64317322 C1.81170889 212.63639182 1.82599369 215.6295241 1.84178162 218.62271118 C1.84324878 219.92719993 1.84324878 219.92719993 1.84474558 221.25804198 C1.87434098 225.61622788 2.12868207 229.70854399 3 234 C2.34 234 1.68 234 1 234 C-1.10076854 228.81076025 -1.29561782 224.30321113 -1.29193115 218.80148315 C-1.29913469 217.88446314 -1.30633822 216.96744313 -1.31376004 216.02263463 C-1.33541915 212.95500941 -1.34299723 209.88751411 -1.35058594 206.81982422 C-1.36316023 204.61855597 -1.37657324 202.41729237 -1.39076233 200.21603394 C-1.42662383 194.24112415 -1.44999127 188.26622555 -1.4705801 182.29124594 C-1.49365255 176.04172079 -1.52631288 169.79224438 -1.55743408 163.54275513 C-1.61131555 152.37767323 -1.65521012 141.21257134 -1.69521323 130.04743315 C-1.7317727 119.9233281 -1.77882237 109.79931582 -1.83349609 99.67529297 C-1.89699936 87.91546259 -1.95371911 76.15562442 -2.0004847 64.39571393 C-2.02524975 58.17158404 -2.05277539 51.94749897 -2.08739471 45.72341537 C-2.11949777 39.87448315 -2.14177863 34.02559503 -2.15640068 28.17659378 C-2.1633945 26.02710306 -2.17384332 23.87762047 -2.18795204 21.72816467 C-2.20661503 18.80023361 -2.2129163 15.87253237 -2.21600342 12.94454956 C-2.22435581 12.08872123 -2.2327082 11.23289289 -2.2413137 10.35113037 C-2.23238789 6.30823471 -1.97766368 3.51603524 0 0 Z " fill="#A286EB" transform="translate(361,185)"/>
<path d="M0 0 C3.30243195 0.56938482 4.91109409 1.36616211 7 4 C8.03161608 5.98387708 9.03523618 7.98276656 10 10 C10.33 10.33 10.66 10.66 11 11 C11.09950729 12.92731517 11.12740035 14.8583357 11.12863445 16.78821754 C11.1318589 18.05384769 11.13508335 19.31947784 11.1384055 20.62346041 C11.13693403 22.04630647 11.13536629 23.46915243 11.13371277 24.89199829 C11.13557889 26.38930042 11.13787879 27.88660205 11.14057809 29.38390291 C11.1467275 33.51830765 11.14655882 37.65269227 11.14538372 41.78710055 C11.14518049 46.23852272 11.15069108 50.68993829 11.15544128 55.14135742 C11.16376635 63.87125654 11.16649699 72.60114891 11.16705366 81.33105166 C11.16752809 88.42622145 11.16957917 95.521389 11.17275429 102.61655807 C11.1815671 122.71805176 11.18617286 142.81954009 11.18542381 162.92103572 C11.18538386 164.00589764 11.1853439 165.09075957 11.18530273 166.20849609 C11.18526185 167.2946782 11.18522097 168.3808603 11.18517885 169.49995701 C11.18477254 187.09705869 11.19433668 204.69413896 11.2084411 222.29123445 C11.22279808 240.34550956 11.22971161 258.39977422 11.22884732 276.45405519 C11.22851505 286.59575896 11.2312754 296.73744031 11.24202538 306.87913895 C11.25112162 315.51637178 11.25331297 324.15357202 11.24651595 332.79080756 C11.24324588 337.19868451 11.24321152 341.60649892 11.2518692 346.01436996 C11.259714 350.0498903 11.25832348 354.08529827 11.24958507 358.1208158 C11.24804558 359.58052444 11.24988311 361.04024138 11.25544515 362.49994023 C11.26250966 364.48552733 11.2560157 366.47114874 11.24888897 368.45673561 C11.24910634 369.5592811 11.24932371 370.66182658 11.24954766 371.79778254 C10.96633513 375.43199056 10.20880373 378.5640297 9 382 C8.34 382.33 7.68 382.66 7 383 C6.34 382.34 5.68 381.68 5 381 C5.474375 380.2575 5.94875 379.515 6.4375 378.75 C8.89955238 374.41678781 9.12597203 370.9316635 9.13422108 365.97595787 C9.13867892 364.73407184 9.14313676 363.49218581 9.14772969 362.21266687 C9.1476404 360.83215673 9.14745055 359.45164659 9.14717102 358.07113647 C9.15047061 356.60638126 9.15419638 355.14162695 9.1583125 353.6768738 C9.16832978 349.64625568 9.17204886 345.61565245 9.17470181 341.58502364 C9.17860566 337.23993405 9.18818394 332.89485624 9.19691467 328.54977417 C9.21667666 318.05371478 9.2267449 307.55765442 9.23564246 297.06158108 C9.24002575 292.11874735 9.24539245 287.1759147 9.25063133 282.23308182 C9.26764325 265.80195272 9.28213748 249.37082428 9.28938007 232.93968773 C9.29128997 228.67577488 9.2932103 224.41186204 9.29516602 220.14794922 C9.29564976 219.08817547 9.2961335 218.02840172 9.2966319 216.93651362 C9.30493242 199.76839594 9.3302699 182.60034793 9.36274669 165.43226068 C9.39581809 147.80615093 9.4138289 130.18007659 9.41702431 112.55393565 C9.41918932 102.65750917 9.42793664 92.7611843 9.45348549 82.86478806 C9.47519355 74.43666331 9.48324236 66.00866484 9.47351871 57.58051531 C9.46897434 53.28153424 9.47086813 48.98281373 9.49028015 44.68386841 C9.50791495 40.74442257 9.50691176 36.8054273 9.49138286 32.86597665 C9.48900725 31.44465707 9.49332796 30.02330626 9.50521151 28.60203438 C9.59484619 17.16893329 8.00386114 8.44852009 0 0 Z " fill="#9077D4" transform="translate(314,106)"/>
<path d="M0 0 C4.5995235 1.07322215 6.45997461 2.15033416 9.08242798 6.16487122 C13.86807689 15.24989652 12.78597323 25.35238121 12.68115234 35.36206055 C12.67945812 37.62966364 12.68041337 39.89727003 12.68380737 42.16487122 C12.68552361 48.29654684 12.65033275 54.42751326 12.60836363 60.55902457 C12.57076817 66.97582098 12.56732429 73.39263498 12.56021118 79.80952454 C12.54370202 90.57197609 12.50626605 101.33411878 12.45263672 112.09643555 C12.39748015 123.17682612 12.35505014 134.25714617 12.32958984 145.33764648 C12.3280135 146.02176551 12.32643716 146.70588453 12.32481305 147.41073444 C12.31698227 150.84309341 12.30940016 154.27545287 12.30194163 157.70781267 C12.23984005 186.13871988 12.13379898 214.56934601 12 243 C11.34 243 10.68 243 10 243 C10.00368717 241.84447443 10.00737434 240.68894886 10.01117325 239.49840736 C10.09787682 212.04478997 10.16379812 184.59118633 10.20426132 157.13746021 C10.20926391 153.75553964 10.21444122 150.37361936 10.21972656 146.99169922 C10.2207758 146.31844338 10.22182505 145.64518755 10.22290608 144.95153002 C10.24029302 134.06214359 10.27182122 123.17284195 10.30861118 112.28350575 C10.34606833 101.10312628 10.36794669 89.92277574 10.37635398 78.74233282 C10.38156495 72.46533035 10.39379757 66.18851998 10.42292023 59.91157913 C10.45012369 54.00024907 10.45843489 48.08918976 10.45243073 42.17780304 C10.45352874 40.01148633 10.46145297 37.84516032 10.4768219 35.67889786 C10.49682669 32.71306262 10.49190074 29.74823953 10.48101807 26.78237915 C10.49266943 25.93215325 10.5043208 25.08192735 10.51632524 24.20593703 C10.44412402 16.8884628 8.67101081 9.29653234 3.3125 4 C2.549375 3.34 1.78625 2.68 1 2 C0.67 1.34 0.34 0.68 0 0 Z " fill="#8667DA" transform="translate(399,172)"/>
<path d="M0 0 C2.125 0.375 2.125 0.375 4 1 C3.071875 1.3403125 3.071875 1.3403125 2.125 1.6875 C-0.70166311 3.43338016 -0.95691787 4.8707536 -2 8 C-2.50632965 9.02315811 -3.0126593 10.04631622 -3.53433228 11.10047913 C-5.40887115 15.46388023 -5.42245115 19.51060497 -5.38818359 24.20483398 C-5.39344055 25.10008789 -5.39869751 25.9953418 -5.40411377 26.91772461 C-5.41725717 29.86069475 -5.40859497 32.80311863 -5.3984375 35.74609375 C-5.40046004 37.80200809 -5.40337297 39.85792173 -5.40713501 41.91383362 C-5.41155086 46.21679534 -5.40515171 50.51956986 -5.39111328 54.82250977 C-5.37403276 60.32467547 -5.38386026 65.82640174 -5.40183067 71.32855129 C-5.41269764 75.57260925 -5.40920861 79.81656392 -5.4014473 84.06062508 C-5.39945278 86.08871577 -5.40187812 88.11681599 -5.40888596 90.14489555 C-5.41654718 92.98543829 -5.40483046 95.8252806 -5.38818359 98.66577148 C-5.39729263 99.91056023 -5.39729263 99.91056023 -5.40658569 101.18049622 C-5.34618876 106.77361209 -4.11721338 110.8292524 -2 116 C-2 116.99 -2 117.98 -2 119 C-2.66 117.68 -3.32 116.36 -4 115 C-4.66 115 -5.32 115 -6 115 C-7.8545152 109.47392169 -8.29686622 104.61797655 -8.29052734 98.81103516 C-8.29724457 97.91738754 -8.30396179 97.02373993 -8.31088257 96.10301208 C-8.32979486 93.16497148 -8.33378319 90.22716009 -8.3359375 87.2890625 C-8.34236957 85.23554391 -8.34909824 83.18202622 -8.35610962 81.12850952 C-8.36806506 76.82979203 -8.37179217 72.53115481 -8.37060547 68.23242188 C-8.37040226 62.73926138 -8.39771496 57.24661807 -8.43214989 51.75358009 C-8.45444617 47.51378032 -8.45844219 43.27410455 -8.45738602 39.03425217 C-8.45973745 37.00976147 -8.46853502 34.98526711 -8.48405075 32.9608345 C-8.50376814 30.1227778 -8.49785041 27.28583059 -8.48583984 24.44775391 C-8.49707886 23.62149002 -8.50831787 22.79522614 -8.51989746 21.94392395 C-8.45481532 15.85561895 -6.78939733 11.36894214 -4 6 C-3.66804815 5.29546 -3.33609631 4.59091999 -2.99408531 3.86503029 C-2 2 -2 2 0 0 Z " fill="#8B6ED7" transform="translate(453,238)"/>
<path d="M0 0 C1 3 1 3 -0.4765625 6.51171875 C-1.18109892 7.9095579 -1.89795104 9.3012368 -2.625 10.6875 C-2.9967334 11.40993896 -3.3684668 12.13237793 -3.75146484 12.87670898 C-7.35123231 19.80481426 -11.04385605 26.16583248 -16.26171875 32.00390625 C-19.22593749 35.40776193 -21.97052108 38.99446184 -24.75390625 42.546875 C-27.02933113 45.03203469 -29.08458119 46.36036478 -32 48 C-33.3610507 49.13420892 -34.69573848 50.30092086 -36 51.5 C-38.85579296 54.05943709 -41.6413295 56.1230959 -45 58 C-45.66 58.66 -46.32 59.32 -47 60 C-48.97729701 61.08414296 -50.98112038 62.12041326 -53 63.125 C-54.60875 63.93324219 -54.60875 63.93324219 -56.25 64.7578125 C-59 66 -59 66 -61 66 C-61.33 66.66 -61.66 67.32 -62 68 C-64.328125 69 -64.328125 69 -67.25 70 C-70.07843825 70.97848674 -72.86728444 71.94343271 -75.62109375 73.1171875 C-78.80014897 74.29693541 -81.64085654 74.13173112 -85 74 C-82.5556206 71.02951245 -80.62634583 70.50074872 -76.875 69.9375 C-74.25182793 69.57796471 -74.25182793 69.57796471 -72 69 C-71.505 68.01 -71.505 68.01 -71 67 C-68.94058679 66.2815324 -66.85082493 65.64894104 -64.75 65.0625 C-60.35115042 63.83340967 -56.86971692 62.40828128 -53 60 C-52.34 60 -51.68 60 -51 60 C-50.67 59.01 -50.34 58.02 -50 57 C-48.68 57 -47.36 57 -46 57 C-46 56.34 -46 55.68 -46 55 C-45.01 55 -44.02 55 -43 55 C-43 54.34 -43 53.68 -43 53 C-42.01 52.505 -41.02 52.01 -40 51.5 C-35.22961558 48.78648174 -31.7430282 44.95534283 -28 41 C-27.04528982 40.03805716 -26.08757056 39.07907729 -25.125 38.125 C-24.42375 37.42375 -23.7225 36.7225 -23 36 C-22.34 35.34 -21.68 34.68 -21 34 C-20.87625 33.34 -20.7525 32.68 -20.625 32 C-20 30 -20 30 -18 28.9375 C-17.34 28.628125 -16.68 28.31875 -16 28 C-15.505 26.515 -15.505 26.515 -15 25 C-14 24 -13 23 -12 22 C-11.505 20.515 -11.505 20.515 -11 19 C-10.34 19 -9.68 19 -9 19 C-9 17.68 -9 16.36 -9 15 C-8.34 15 -7.68 15 -7 15 C-7 13.68 -7 12.36 -7 11 C-6.34 10.67 -5.68 10.34 -5 10 C-4.06606559 8.344389 -3.19897217 6.65049478 -2.375 4.9375 C-1.70597656 3.55884766 -1.70597656 3.55884766 -1.0234375 2.15234375 C-0.68570313 1.44207031 -0.34796875 0.73179687 0 0 Z " fill="#8566E0" transform="translate(588,520)"/>
<path d="M0 0 C0.66 0.33 1.32 0.66 2 1 C2.11611949 12.95288206 2.20482991 24.90562875 2.25906086 36.85896111 C2.28509602 42.41008376 2.32038308 47.96081901 2.37719727 53.51171875 C2.43173368 58.87395127 2.46146623 64.23581237 2.47438622 69.59830093 C2.48358732 71.63875292 2.50155479 73.67918578 2.52865028 75.71947861 C2.79052749 96.2657823 2.79052749 96.2657823 -3 104 C-3.66 104 -4.32 104 -5 104 C-4.71125 103.29875 -4.4225 102.5975 -4.125 101.875 C-3.75375 100.92625 -3.3825 99.9775 -3 99 C-2.65337311 98.14082977 -2.30674622 97.28165955 -1.94961548 96.39645386 C-0.75247995 92.11470436 -0.69242126 88.20569394 -0.68115234 83.78173828 C-0.67110672 82.87378006 -0.6610611 81.96582184 -0.65071106 81.03034973 C-0.61993948 78.04367681 -0.60286062 75.05709328 -0.5859375 72.0703125 C-0.56722102 69.99379714 -0.54764724 67.91728935 -0.5272522 65.84078979 C-0.47597584 60.38615382 -0.43632597 54.93149321 -0.39910889 49.47674561 C-0.35904111 43.90631028 -0.3079614 38.33597708 -0.2578125 32.765625 C-0.16110641 21.84382179 -0.07668454 10.92196085 0 0 Z " fill="#896CD6" transform="translate(153,253)"/>
<path d="M0 0 C2.60339305 2.60339305 3.48084036 5.55916139 4.75 8.9375 C10.25472868 23.06169668 18.61770446 39.48940323 31.203125 48.59375 C31.79609375 49.0578125 32.3890625 49.521875 33 50 C33 50.66 33 51.32 33 52 C33.66 52 34.32 52 35 52 C35.66 52.845625 36.32 53.69125 37 54.5625 C40.6546147 59.144405 46.33425816 64.11563134 52.12109375 65.51171875 C54 66 54 66 55.34375 67.34765625 C61.75014477 73.7389416 73.57464566 77.23166929 82 80 C82 80.33 82 80.66 82 81 C75.6958526 80.5062586 70.78139742 78.96019412 65.0625 76.3125 C63.8712854 75.76903931 63.8712854 75.76903931 62.65600586 75.21459961 C52.56333608 70.51741486 44.49175515 64.15427217 36 57 C34.93072266 56.13568359 34.93072266 56.13568359 33.83984375 55.25390625 C28.08453265 50.48260461 23.56459339 44.89626739 19 39 C18.31808594 38.14535156 17.63617187 37.29070313 16.93359375 36.41015625 C12.87894377 31.13355696 9.61237454 25.67629041 6.625 19.75 C6.29105225 19.08846924 5.95710449 18.42693848 5.61303711 17.74536133 C4.06228382 14.56127026 2.7987033 11.50787547 1.8984375 8.078125 C1.60195312 7.06234375 1.30546875 6.0465625 1 5 C0.34 4.67 -0.32 4.34 -1 4 C-0.67 2.68 -0.34 1.36 0 0 Z " fill="#8364DD" transform="translate(8,511)"/>
<path d="M0 0 C0.66 0 1.32 0 2 0 C2.04626639 11.96075236 2.08184014 23.92148356 2.10362434 35.88230705 C2.11407774 41.43573026 2.12826523 46.98909241 2.15087891 52.54248047 C2.17255192 57.89816008 2.1845569 63.25378082 2.18975449 68.60950089 C2.19346023 70.65651502 2.20069624 72.7035258 2.21146011 74.75051498 C2.22590142 77.60962733 2.22798104 80.46849399 2.22705078 83.32763672 C2.23783661 84.60725281 2.23783661 84.60725281 2.24884033 85.91271973 C2.22810432 91.77189568 2.22810432 91.77189568 0 94 C-1.30657349 90.08027954 -1.08461724 86.38707095 -1.02172852 82.3059082 C-1.01212097 81.4178952 -1.00251343 80.5298822 -0.99261475 79.61495972 C-0.95960728 76.67682001 -0.9192815 73.73882819 -0.87890625 70.80078125 C-0.85460685 68.76483178 -0.8307632 66.72887682 -0.80735779 64.69291687 C-0.744499 59.33183548 -0.67543736 53.97085111 -0.60510254 48.60986328 C-0.53443535 43.14034446 -0.46960871 37.6707568 -0.40429688 32.20117188 C-0.27526138 21.46737226 -0.13967571 10.73366606 0 0 Z " fill="#9073DD" transform="translate(495,254)"/>
<path d="M0 0 C-0.33 0.99 -0.66 1.98 -1 3 C-2.84765625 3.73046875 -2.84765625 3.73046875 -5.0625 4.1875 C-5.79597656 4.34605469 -6.52945313 4.50460938 -7.28515625 4.66796875 C-7.85105469 4.77753906 -8.41695312 4.88710938 -9 5 C-9 5.66 -9 6.32 -9 7 C-14.75 10 -14.75 10 -17 10 C-17.22816406 10.57621094 -17.45632812 11.15242188 -17.69140625 11.74609375 C-19.34677942 14.59728874 -21.321276 16.06863765 -23.9375 18.0625 C-26.80336852 20.26149485 -29.45675064 22.44170183 -32 25 C-32.721875 25.391875 -33.44375 25.78375 -34.1875 26.1875 C-38.32562637 28.85429255 -41.80083476 32.26102524 -45 36 C-45 36.66 -45 37.32 -45 38 C-47.5 39.625 -47.5 39.625 -50 41 C-48.50078941 36.00575474 -45.52433201 32.98229383 -42 29.3125 C-41.18015625 28.44141602 -41.18015625 28.44141602 -40.34375 27.55273438 C-37.18220939 24.20134635 -34.14340398 21.04513627 -30.4375 18.3125 C-28.24250862 16.69079796 -26.0757894 15.0621153 -23.96484375 13.33203125 C-19.41854417 9.61851178 -14.69830227 6.4937703 -9.625 3.5625 C-9.01769043 3.20816895 -8.41038086 2.85383789 -7.78466797 2.48876953 C-4.97046484 0.90100793 -3.28527481 0 0 0 Z " fill="#8666E1" transform="translate(77,14)"/>
<path d="M0 0 C0.66 0 1.32 0 2 0 C5.65728397 17.62944851 6.50699576 34.5345419 6.25 52.5 C6.22986517 54.99217283 6.21162699 57.48436173 6.1953125 59.9765625 C6.15196128 65.98473547 6.08562475 71.99228813 6 78 C5.67 78 5.34 78 5 78 C4.97494385 76.84999512 4.9498877 75.69999023 4.92407227 74.51513672 C4.82961786 70.23231627 4.72949124 65.94964368 4.62768555 61.66699219 C4.58448014 59.81644154 4.54279542 57.96585471 4.50268555 56.11523438 C4.4446328 53.44910806 4.38104076 50.7831614 4.31640625 48.1171875 C4.29969376 47.29507782 4.28298126 46.47296814 4.26576233 45.62594604 C4.15566446 41.3183704 3.79101504 37.24771182 3 33 C2.8296282 30.43901444 2.6855373 27.87619566 2.5625 25.3125 C2.2539623 19.51892172 1.56961996 13.97941138 0.41015625 8.28515625 C-0.08997071 5.49873462 -0.1526227 2.82351987 0 0 Z " fill="#8A67EB" transform="translate(594,100)"/>
<path d="M0 0 C0.33 0 0.66 0 1 0 C1 7.59 1 15.18 1 23 C0.34 23 -0.32 23 -1 23 C-0.9690625 23.99128906 -0.938125 24.98257812 -0.90625 26.00390625 C-1.00396177 30.16887055 -1.61749096 33.88670399 -2.5 37.9375 C-2.64308594 38.62134766 -2.78617188 39.30519531 -2.93359375 40.00976562 C-3.28283771 41.67449514 -3.64052946 43.33744875 -4 45 C-4.66 45 -5.32 45 -6 45 C-6.66 47.97 -7.32 50.94 -8 54 C-8.66 54 -9.32 54 -10 54 C-9.81824219 53.36835937 -9.63648438 52.73671875 -9.44921875 52.0859375 C-8.60044394 49.0651697 -7.79336444 46.03579635 -7 43 C-6.74863281 42.04351562 -6.49726562 41.08703125 -6.23828125 40.1015625 C-3.95882752 30.52544472 -2.99255826 20.8479837 -2.00195312 11.06640625 C-1.88529297 9.92558594 -1.76863281 8.78476562 -1.6484375 7.609375 C-1.54708496 6.57780273 -1.44573242 5.54623047 -1.34130859 4.48339844 C-1 2 -1 2 0 0 Z " fill="#8666E1" transform="translate(599,465)"/>
<path d="M0 0 C14.87510543 -0.74791033 28.76735898 1.75886402 43 6 C43 6.66 43 7.32 43 8 C36.07 7.505 36.07 7.505 29 7 C29 6.34 29 5.68 29 5 C28.06027344 5.03480469 28.06027344 5.03480469 27.1015625 5.0703125 C25.87566406 5.09738281 25.87566406 5.09738281 24.625 5.125 C23.81289063 5.14820313 23.00078125 5.17140625 22.1640625 5.1953125 C20 5 20 5 18 3 C16.07098859 2.54025497 16.07098859 2.54025497 13.8671875 2.3671875 C12.65869141 2.24150391 12.65869141 2.24150391 11.42578125 2.11328125 C10.16314453 1.99533203 10.16314453 1.99533203 8.875 1.875 C7.60076172 1.74544922 7.60076172 1.74544922 6.30078125 1.61328125 C4.20130273 1.40097443 2.10073758 1.19946397 0 1 C0 0.67 0 0.34 0 0 Z " fill="#8867E2" transform="translate(464,0)"/>
<path d="M0 0 C5.68927909 1.89642636 8.20488481 8.21546182 10.8125 13.3125 C13 17.70769231 13 17.70769231 13 20 C13.66 20.33 14.32 20.66 15 21 C17.01131706 25.46549293 18.47727616 30.06814638 18 35 C14.69713334 32.79808889 14.34130154 32.00871534 13 28.4375 C12.65710938 27.53902344 12.31421875 26.64054687 11.9609375 25.71484375 C11.11463041 23.32385421 10.36033238 20.92659686 9.625 18.5 C8.16386694 13.92069471 5.7974075 10.09377954 3.20703125 6.06640625 C2 4 2 4 2 2 C1.34 2 0.68 2 0 2 C0 1.34 0 0.68 0 0 Z " fill="#8261DA" transform="translate(574,57)"/>
<path d="M0 0 C0.66 0 1.32 0 2 0 C0.68 13.2 -0.64 26.4 -2 40 C-2.33 40 -2.66 40 -3 40 C-3.3542772 26.29583122 -3.02191845 13.40076931 0 0 Z " fill="#8362E0" transform="translate(3,105)"/>
<path d="M0 0 C0.33 0 0.66 0 1 0 C1.06058594 0.84304688 1.12117187 1.68609375 1.18359375 2.5546875 C1.26738281 3.65039062 1.35117187 4.74609375 1.4375 5.875 C1.51871094 6.96554687 1.59992187 8.05609375 1.68359375 9.1796875 C1.83001703 11.94728971 1.83001703 11.94728971 3 14 C3.15306901 15.81171098 3.24946661 17.6283794 3.31640625 19.4453125 C3.35830078 20.52167969 3.40019531 21.59804688 3.44335938 22.70703125 C3.48267578 23.83496094 3.52199219 24.96289062 3.5625 26.125 C3.60568359 27.26066406 3.64886719 28.39632813 3.69335938 29.56640625 C3.7996604 32.37747768 3.90169405 35.18863945 4 38 C3.34 37.67 2.68 37.34 2 37 C-0.29326832 28.764191 -0.25511069 20.22721195 -0.125 11.75 C-0.11597656 10.61175781 -0.10695312 9.47351563 -0.09765625 8.30078125 C-0.0744028 5.53362119 -0.04172868 2.7669324 0 0 Z " fill="#8665E3" transform="translate(0,456)"/>
<path d="M0 0 C0.66 0 1.32 0 2 0 C3.2265625 1.390625 3.2265625 1.390625 4.625 3.25 C8.70038648 8.07972484 12.59960629 10.64653802 18.96875 11.30859375 C24.32336797 11.42125279 29.03087403 11.20850043 34 9 C34 11 34 11 32.484375 12.61328125 C29.09508592 14.50510141 26.01720447 14.32636671 22.25 14.1875 C21.55261719 14.17396484 20.85523437 14.16042969 20.13671875 14.14648438 C18.42414459 14.1112945 16.71197059 14.05749155 15 14 C15 13.34 15 12.68 15 12 C14.01 11.835 13.02 11.67 12 11.5 C6.80703792 10.05574061 3.29561685 6.10882101 0 2 C0 1.34 0 0.68 0 0 Z " fill="#9275DC" transform="translate(107,353)"/>
<path d="M0 0 C11.2130091 1.6280231 24.30458852 11.81228947 32 20 C31.67 20.66 31.34 21.32 31 22 C26.125 18.25 26.125 18.25 25 16 C24.236875 15.896875 23.47375 15.79375 22.6875 15.6875 C20 15 20 15 18.34765625 12.7578125 C15.28768218 9.16323398 11.87770727 7.37897709 7.75 5.1875 C7.00492188 4.78080078 6.25984375 4.37410156 5.4921875 3.95507812 C3.66667907 2.96041007 1.8340326 1.97886159 0 1 C0 0.67 0 0.34 0 0 Z " fill="#8262DB" transform="translate(523,14)"/>
<path d="M0 0 C0.495 1.485 0.495 1.485 1 3 C-1.31044548 7.62089095 -8.38139654 9.37429136 -13 11 C-20.00459075 12.05776816 -25.78864291 11.38801296 -32 8 C-32 7.34 -32 6.68 -32 6 C-30.6696875 6.495 -30.6696875 6.495 -29.3125 7 C-22.33807718 8.95624055 -14.07822177 9.40869537 -7.4375 6.25 C-4.54680663 4.53880731 -2.19639381 2.56245944 0 0 Z " fill="#9276DC" transform="translate(404,422)"/>
<path d="M0 0 C9.33175289 -0.5338079 17.92550815 1.08718365 27 3 C27 3.33 27 3.66 27 4 C18.28347105 4.23209692 9.4651939 4.40168373 1 2 C0.67 1.34 0.34 0.68 0 0 Z " fill="#8866E4" transform="translate(103,595)"/>
<path d="M0 0 C0 0.99 0 1.98 0 3 C-7.41471816 8.49238382 -13.98871743 8.57682463 -23 8 C-23 7.34 -23 6.68 -23 6 C-24.65 5.67 -26.3 5.34 -28 5 C-27.67 4.34 -27.34 3.68 -27 3 C-26.29359375 3.32226562 -25.5871875 3.64453125 -24.859375 3.9765625 C-18.29611665 6.32570688 -11.15451441 5.85298634 -4.8125 3.0625 C-2.21706791 1.79196188 -2.21706791 1.79196188 0 0 Z " fill="#9176DA" transform="translate(316,491)"/>
<path d="M0 0 C-0.66 0.66 -1.32 1.32 -2 2 C-2.99 2 -3.98 2 -5 2 C-5 2.66 -5 3.32 -5 4 C-7.29077041 4.66988586 -9.58251459 5.33603162 -11.875 6 C-12.52597656 6.19078125 -13.17695312 6.3815625 -13.84765625 6.578125 C-18.7734375 8 -18.7734375 8 -21 8 C-21 7.34 -21 6.68 -21 6 C-18.44114774 4.98968935 -15.87859624 3.99159855 -13.3125 3 C-12.59126953 2.71382812 -11.87003906 2.42765625 -11.12695312 2.1328125 C-7.28959679 0.6609498 -4.18433411 -0.39614998 0 0 Z " fill="#8564DE" transform="translate(99,6)"/>
<path d="M0 0 C-0.33 0.66 -0.66 1.32 -1 2 C-7.49072771 3.38993361 -14.39523277 3.12647427 -21 3 C-18.08067855 -0.41505528 -15.81517057 -0.58752266 -11.49609375 -0.94921875 C-7.58705588 -1.02874534 -3.86841385 -0.55263055 0 0 Z " fill="#8A6BE0" transform="translate(129,1)"/>
<path d="M0 0 C0.66 0 1.32 0 2 0 C-0.28856245 7.6805543 -2.63553669 15.34249954 -5 23 C-5.66 22.67 -6.32 22.34 -7 22 C-6.40477506 19.45594213 -5.79917231 16.9151083 -5.1875 14.375 C-4.9390332 13.30572266 -4.9390332 13.30572266 -4.68554688 12.21484375 C-3.61290285 7.80283625 -2.20707645 4.00941682 0 0 Z " fill="#8161DB" transform="translate(11,80)"/>
<path d="M0 0 C3.9744079 2.14168624 6.65807579 4.54745773 9.625 7.9375 C10.38039063 8.79214844 11.13578125 9.64679687 11.9140625 10.52734375 C13.69296446 12.63604214 15.37610355 14.77102111 17 17 C16.67 17.66 16.34 18.32 16 19 C14.49405319 17.38050958 12.99539332 15.75424026 11.5 14.125 C10.6646875 13.22007813 9.829375 12.31515625 8.96875 11.3828125 C7 9 7 9 7 7 C6.401875 6.731875 5.80375 6.46375 5.1875 6.1875 C3.00152146 5.00082594 1.58667406 3.90400887 0 2 C0 1.34 0 0.68 0 0 Z " fill="#8666DD" transform="translate(557,37)"/>
<path d="M0 0 C0.66 0 1.32 0 2 0 C3.72330907 7.09326321 4.2494783 13.70968976 4 21 C0.53066423 14.79018051 -0.38014457 7.03267459 0 0 Z " fill="#8463DC" transform="translate(594,100)"/>
<path d="M0 0 C1.890625 0.234375 1.890625 0.234375 4 1 C6.32767422 5.20371015 7.46328919 10.21267836 7 15 C3.63389189 12.75592792 3.21711616 11.72741802 1.8125 8.0625 C1.46832031 7.18722656 1.12414062 6.31195313 0.76953125 5.41015625 C0 3 0 3 0 0 Z " fill="#8A69E2" transform="translate(585,77)"/>
<path d="M0 0 C-0.33 0.99 -0.66 1.98 -1 3 C-2.84765625 3.73046875 -2.84765625 3.73046875 -5.0625 4.1875 C-5.79597656 4.34605469 -6.52945313 4.50460938 -7.28515625 4.66796875 C-8.13400391 4.83232422 -8.13400391 4.83232422 -9 5 C-9 5.66 -9 6.32 -9 7 C-11.97 8.32 -14.94 9.64 -18 11 C-16.61469424 6.84408271 -13.76632662 5.82213435 -10.125 3.8125 C-9.48691406 3.44447266 -8.84882812 3.07644531 -8.19140625 2.69726562 C-3.39737941 0 -3.39737941 0 0 0 Z " fill="#8262DB" transform="translate(77,14)"/>
<path d="M0 0 C5.52534499 1.28924716 5.52534499 1.28924716 7.5078125 4.2578125 C12.83876009 13.7092993 12.83876009 13.7092993 12 20 C10.19692736 17.29539104 9.26724217 15.14827807 8.1875 12.125 C6.43604636 7.60809325 4.63213385 5.14130495 1 2 C0.67 1.34 0.34 0.68 0 0 Z " fill="#9174DD" transform="translate(399,172)"/>
<path d="M0 0 C0.99 0.33 1.98 0.66 3 1 C2.59007812 1.64066406 2.18015625 2.28132812 1.7578125 2.94140625 C-1.33815426 7.91124762 -3.75372504 12.26713518 -5 18 C-5.33 18 -5.66 18 -6 18 C-6.21278058 13.53160785 -5.59138085 10.17737474 -4 6 C-3.34 6 -2.68 6 -2 6 C-1.855625 5.38125 -1.71125 4.7625 -1.5625 4.125 C-1 2 -1 2 0 0 Z " fill="#8D72D9" transform="translate(195,174)"/>
<path d="M0 0 C0.69287109 0.00451172 1.38574219 0.00902344 2.09960938 0.01367188 C3.79561068 0.02536844 5.49156703 0.04330076 7.1875 0.0625 C7.1875 0.7225 7.1875 1.3825 7.1875 2.0625 C8.1775 2.3925 9.1675 2.7225 10.1875 3.0625 C9.1975 3.5575 9.1975 3.5575 8.1875 4.0625 C7.32125 3.753125 6.455 3.44375 5.5625 3.125 C-0.60156678 1.18446046 -6.55833697 2.0201395 -12.8125 3.0625 C-12.8125 2.4025 -12.8125 1.7425 -12.8125 1.0625 C-8.52952469 0.00630997 -4.38264354 -0.05452092 0 0 Z " fill="#8F74DA" transform="translate(387.8125,166.9375)"/>
<path d="M0 0 C2.125 0.375 2.125 0.375 4 1 C3.071875 1.3403125 3.071875 1.3403125 2.125 1.6875 C-0.70166311 3.43338016 -0.95691787 4.8707536 -2 8 C-2.5317048 9.27503339 -3.07370873 10.54581216 -3.625 11.8125 C-4.07875 12.864375 -4.5325 13.91625 -5 15 C-5.33 15 -5.66 15 -6 15 C-6.55199214 9.3420806 -5.0142776 6.61007163 -2 2 C-1.34 1.34 -0.68 0.68 0 0 Z " fill="#9074DD" transform="translate(453,238)"/>
<path d="M0 0 C0.66 0.33 1.32 0.66 2 1 C1.13375 1.680625 0.2675 2.36125 -0.625 3.0625 C-4.1895533 6.01598702 -7.08784755 9.41660673 -10 13 C-10 9.24143532 -9.22864613 8.01945605 -7 5 C-4.74829646 3.16361067 -2.43100487 1.60538057 0 0 Z " fill="#F3EAFD" transform="translate(460,236)"/>
<path d="M0 0 C0.99 0.33 1.98 0.66 3 1 C2.04454634 2.46022163 1.08553322 3.91811468 0.125 5.375 C-0.40867187 6.18710938 -0.94234375 6.99921875 -1.4921875 7.8359375 C-3 10 -3 10 -5 12 C-4.25 5.375 -4.25 5.375 -2 2 C-1.34 2 -0.68 2 0 2 C0 1.34 0 0.68 0 0 Z " fill="#8B6ED9" transform="translate(367,173)"/>
<path d="M0 0 C1.41702513 0.14230808 2.8336096 0.28900746 4.25 0.4375 C5.43335938 0.55931641 5.43335938 0.55931641 6.640625 0.68359375 C8.82364639 0.97634993 10.8773182 1.42064419 13 2 C13 2.66 13 3.32 13 4 C8.28596212 3.52060632 4.33420699 3.03165952 0 1 C0 0.67 0 0.34 0 0 Z " fill="#8363DA" transform="translate(494,4)"/>
<path d="M0 0 C0.99 0.33 1.98 0.66 3 1 C2.49339844 1.79664063 2.49339844 1.79664063 1.9765625 2.609375 C1.30753906 3.66898438 1.30753906 3.66898438 0.625 4.75 C0.18414062 5.44609375 -0.25671875 6.1421875 -0.7109375 6.859375 C-1.91880906 8.86517383 -2.98387737 10.89178296 -4 13 C-5 11 -5 11 -4.25 8.1875 C-3.0830289 5.2117237 -1.73251671 2.67752583 0 0 Z " fill="#9478DD" transform="translate(109,241)"/>
<path d="M0 0 C3.08683693 1.15756385 4.5364932 1.7714912 6.5 4.3125 C2.91936487 4.3125 1.02512014 3.96842475 -2.25 2.8125 C-3.04921875 2.5340625 -3.8484375 2.255625 -4.671875 1.96875 C-5.27515625 1.7521875 -5.8784375 1.535625 -6.5 1.3125 C-3.5 -0.6875 -3.5 -0.6875 0 0 Z " fill="#9377DE" transform="translate(224.5,167.6875)"/>
<path d="M0 0 C0.66 0.99 1.32 1.98 2 3 C1.25 6.625 1.25 6.625 0 10 C-0.99 10.495 -0.99 10.495 -2 11 C-2.66 10.34 -3.32 9.68 -4 9 C-3.2884375 7.88625 -3.2884375 7.88625 -2.5625 6.75 C-1.22130673 4.38949985 -0.487688 2.63351523 0 0 Z " fill="#9579E2" transform="translate(323,478)"/>
<path d="M0 0 C0.66 0.33 1.32 0.66 2 1 C-0.64 3.64 -3.28 6.28 -6 9 C-6.66 8.67 -7.32 8.34 -8 8 C-3.375 2.25 -3.375 2.25 0 0 Z " fill="#F1E6FD" transform="translate(202,171)"/>
<path d="M0 0 C3.25511789 0.56122722 4.99840071 1.33120095 7 4 C7.6875 6.6875 7.6875 6.6875 8 9 C5.06799526 6.14723863 2.35684596 3.34920216 0 0 Z " fill="#8769D7" transform="translate(314,106)"/>
<path d="M0 0 C1.32 0.66 2.64 1.32 4 2 C1.36 3.98 -1.28 5.96 -4 8 C-4 6.68 -4 5.36 -4 4 C-3.01 4 -2.02 4 -1 4 C-0.67 2.68 -0.34 1.36 0 0 Z " fill="#886ADA" transform="translate(284,104)"/>
<path d="M0 0 C0.66 0 1.32 0 2 0 C0.55049545 3.7910119 -1.15172566 7.3874638 -3 11 C-3.75 9.4375 -3.75 9.4375 -4 7 C-2.86915563 4.49713591 -1.47860484 2.32992278 0 0 Z " fill="#8162DB" transform="translate(17,68)"/>
<path d="M0 0 C3.6875 0.3125 3.6875 0.3125 7 1 C7 1.66 7 2.32 7 3 C3.7 3 0.4 3 -3 3 C-2.01 2.01 -1.02 1.02 0 0 Z " fill="#8363DB" transform="translate(111,1)"/>
<path d="M0 0 C0.33 0.99 0.66 1.98 1 3 C-1.31 4.98 -3.62 6.96 -6 9 C-4.68775452 5.06326356 -3.08089673 2.77280706 0 0 Z " fill="#F8EFFD" transform="translate(114,239)"/>
<path d="M0 0 C1.32 0 2.64 0 4 0 C5.8125 2.375 5.8125 2.375 7 5 C6.67 5.66 6.34 6.32 6 7 C4.02 4.69 2.04 2.38 0 0 Z " fill="#8D6FDD" transform="translate(484,237)"/>
<path d="M0 0 C1.98 0.99 1.98 0.99 4 2 C4 4.31 4 6.62 4 9 C1.3144406 6.3144406 0.93950026 3.62378672 0 0 Z " fill="#9377DB" transform="translate(321,115)"/>
<path d="M0 0 C0.66 0.33 1.32 0.66 2 1 C-0.36292656 3.52588702 -1.66462511 4.88820837 -5 6 C-3.63016497 2.83884224 -3.0109362 2.0072908 0 0 Z " fill="#8161DA" transform="translate(56,25)"/>
<path d="" fill="#8B6AF3" transform="translate(0,0)"/>
<path d="M0 0 C2 1 2 1 2 1 Z " fill="#8C6AF5" transform="translate(1,102)"/>
<path d="M0 0 C2 1 2 1 2 1 Z " fill="#906DF9" transform="translate(103,0)"/>
<path d="" fill="#8B6AF3" transform="translate(0,0)"/>
<path d="" fill="#8666E2" transform="translate(0,0)"/>
<path d="" fill="#8B6AF3" transform="translate(0,0)"/>
<path d="" fill="#8668DF" transform="translate(0,0)"/>
<path d="" fill="#8D6BF7" transform="translate(0,0)"/>
<path d="" fill="#8668E0" transform="translate(0,0)"/>
<path d="" fill="#8668E2" transform="translate(0,0)"/>
<path d="" fill="#8969EF" transform="translate(0,0)"/>
<path d="" fill="#805FDF" transform="translate(0,0)"/>
<path d="" fill="#8968EF" transform="translate(0,0)"/>
<path d="" fill="#8969E3" transform="translate(0,0)"/>
<path d="" fill="#8464E5" transform="translate(0,0)"/>
<path d="" fill="#7D5DD7" transform="translate(0,0)"/>
<path d="" fill="#8C6BF4" transform="translate(0,0)"/>
<path d="" fill="#8E6CF7" transform="translate(0,0)"/>
<path d="" fill="#916EFA" transform="translate(0,0)"/>
<path d="" fill="#8B6DE7" transform="translate(0,0)"/>
<path d="" fill="#8464E5" transform="translate(0,0)"/>
<path d="" fill="#8C6BF4" transform="translate(0,0)"/>
<path d="" fill="#8162DA" transform="translate(0,0)"/>
<path d="" fill="#8564E0" transform="translate(0,0)"/>
<path d="" fill="#8969E5" transform="translate(0,0)"/>
<path d="" fill="#8466DF" transform="translate(0,0)"/>
<path d="" fill="#8364E5" transform="translate(0,0)"/>
<path d="" fill="#896BE3" transform="translate(0,0)"/>
<path d="" fill="#8464DC" transform="translate(0,0)"/>
<path d="" fill="#8466DE" transform="translate(0,0)"/>
<path d="" fill="#8769E2" transform="translate(0,0)"/>
<path d="" fill="#8D6BF4" transform="translate(0,0)"/>
<path d="" fill="#886AE2" transform="translate(0,0)"/>
<path d="" fill="#8969EF" transform="translate(0,0)"/>
<path d="" fill="#7D5DDC" transform="translate(0,0)"/>
<path d="" fill="#8465E0" transform="translate(0,0)"/>
<path d="" fill="#8768E2" transform="translate(0,0)"/>
<path d="" fill="#8666E4" transform="translate(0,0)"/>
<path d="" fill="#8364E5" transform="translate(0,0)"/>
<path d="" fill="#8E6CF8" transform="translate(0,0)"/>
<path d="" fill="#8968EF" transform="translate(0,0)"/>
<path d="" fill="#8364E5" transform="translate(0,0)"/>
<path d="" fill="#8364E5" transform="translate(0,0)"/>
<path d="" fill="#896AE2" transform="translate(0,0)"/>
<path d="" fill="#8868E2" transform="translate(0,0)"/>
<path d="" fill="#8A6AF3" transform="translate(0,0)"/>
<path d="" fill="#8768E2" transform="translate(0,0)"/>
<path d="" fill="#906DFA" transform="translate(0,0)"/>
<path d="" fill="#8A6AF3" transform="translate(0,0)"/>
<path d="" fill="#8A6BE4" transform="translate(0,0)"/>
<path d="" fill="#8868EF" transform="translate(0,0)"/>
<path d="" fill="#8C6AF5" transform="translate(0,0)"/>
<path d="" fill="#8364E5" transform="translate(0,0)"/>
<path d="" fill="#8666E0" transform="translate(0,0)"/>
<path d="" fill="#8766DF" transform="translate(0,0)"/>
<path d="" fill="#926FFB" transform="translate(0,0)"/>
<path d="" fill="#8665E8" transform="translate(0,0)"/>
<path d="" fill="#8562EB" transform="translate(0,0)"/>
<path d="" fill="#906EF9" transform="translate(0,0)"/>
<path d="" fill="#8969EE" transform="translate(0,0)"/>
<path d="" fill="#8966F2" transform="translate(0,0)"/>
<path d="" fill="#8768E1" transform="translate(0,0)"/>
<path d="" fill="#896AE2" transform="translate(0,0)"/>
<path d="" fill="#8F6DF8" transform="translate(0,0)"/>
<path d="" fill="#7E5DDF" transform="translate(0,0)"/>
<path d="" fill="#8463DE" transform="translate(0,0)"/>
<path d="" fill="#8264E3" transform="translate(0,0)"/>
<path d="" fill="#8365E4" transform="translate(0,0)"/>
<path d="" fill="#805EE3" transform="translate(0,0)"/>
<path d="" fill="#8D6DE8" transform="translate(0,0)"/>
<path d="" fill="#8A6AF1" transform="translate(0,0)"/>
<path d="" fill="#8C6BF3" transform="translate(0,0)"/>
<path d="" fill="#8B6BF3" transform="translate(0,0)"/>
<path d="" fill="#8A6AF1" transform="translate(0,0)"/>
<path d="" fill="#8C6BF3" transform="translate(0,0)"/>
<path d="" fill="#8C6BF3" transform="translate(0,0)"/>
<path d="" fill="#8B6BF3" transform="translate(0,0)"/>
<path d="" fill="#8C6BF3" transform="translate(0,0)"/>
<path d="" fill="#8A6AF1" transform="translate(0,0)"/>
<path d="" fill="#8969ED" transform="translate(0,0)"/>
<path d="" fill="#8969ED" transform="translate(0,0)"/>
<path d="" fill="#8665E1" transform="translate(0,0)"/>
<path d="" fill="#8364E4" transform="translate(0,0)"/>
<path d="" fill="#8364E4" transform="translate(0,0)"/>
<path d="" fill="#825FEA" transform="translate(0,0)"/>
<path d="" fill="#8364E4" transform="translate(0,0)"/>
<path d="" fill="#8364E4" transform="translate(0,0)"/>
<path d="" fill="#8364E4" transform="translate(0,0)"/>
<path d="" fill="#8563E8" transform="translate(0,0)"/>
<path d="" fill="#8968EE" transform="translate(0,0)"/>
<path d="" fill="#8B66F4" transform="translate(0,0)"/>
<path d="" fill="#8363E4" transform="translate(0,0)"/>
<path d="" fill="#8E6CF8" transform="translate(0,0)"/>
<path d="" fill="#8364E5" transform="translate(0,0)"/>
</svg>
